<?xml version="1.0" standalone="no"?>
<!DOCTYPE svg PUBLIC "-//W3C//DTD SVG 20010904//EN"
 "http://www.w3.org/TR/2001/REC-SVG-20010904/DTD/svg10.dtd">
<svg version="1.0" xmlns="http://www.w3.org/2000/svg"
 width="105.000000pt" height="65.000000pt" viewBox="0 0 105.000000 65.000000"
 preserveAspectRatio="xMidYMid meet">

<g transform="translate(0.000000,65.000000) scale(0.100000,-0.100000)"
fill="#000000" stroke="none">
<path d="M0 325 l0 -325 164 0 165 0 -59 125 c-78 164 -260 525 -266 525 -2 0
-4 -146 -4 -325z"/>
<path d="M605 606 c-83 -86 -128 -231 -91 -289 38 -57 84 -54 238 14 49 21
106 42 127 45 72 12 142 -28 161 -92 5 -19 9 41 9 169 l1 197 -202 0 -201 0
-42 -44z"/>
<path d="M1040 72 c0 -31 -25 -54 -66 -62 -37 -7 -37 -8 19 -9 l57 -1 0 45 c0
25 -2 45 -5 45 -3 0 -5 -8 -5 -18z"/>
</g>
</svg>
